<svg width="65" height="19" viewBox="0 0 65 19" fill="none" xmlns="http://www.w3.org/2000/svg">
<path d="M9.30469 13.6875C9.30469 13.2891 9.25781 12.9375 9.16406 12.6328C9.07031 12.3203 8.90625 12.0391 8.67188 11.7891C8.4375 11.5391 8.10938 11.3008 7.6875 11.0742C7.26562 10.8477 6.73047 10.6172 6.08203 10.3828C5.37891 10.1328 4.74219 9.85547 4.17188 9.55078C3.60156 9.23828 3.11328 8.88281 2.70703 8.48438C2.30859 8.08594 2 7.62891 1.78125 7.11328C1.5625 6.59766 1.45312 6.00781 1.45312 5.34375C1.45312 4.67969 1.56641 4.06641 1.79297 3.50391C2.02734 2.94141 2.35547 2.45312 2.77734 2.03906C3.20703 1.61719 3.72266 1.28906 4.32422 1.05469C4.92578 0.820312 5.59766 0.703125 6.33984 0.703125C7.44922 0.703125 8.38281 0.949219 9.14062 1.44141C9.90625 1.92578 10.4844 2.5625 10.875 3.35156C11.2656 4.13281 11.4609 4.96875 11.4609 5.85938H9.30469C9.30469 5.21875 9.19922 4.65234 8.98828 4.16016C8.78516 3.66016 8.46484 3.26953 8.02734 2.98828C7.59766 2.69922 7.03516 2.55469 6.33984 2.55469C5.71484 2.55469 5.19922 2.67578 4.79297 2.91797C4.39453 3.16016 4.09766 3.48828 3.90234 3.90234C3.71484 4.31641 3.62109 4.78906 3.62109 5.32031C3.62109 5.67969 3.68359 6.00781 3.80859 6.30469C3.93359 6.59375 4.125 6.86328 4.38281 7.11328C4.64844 7.36328 4.97656 7.59375 5.36719 7.80469C5.76562 8.01562 6.23438 8.21875 6.77344 8.41406C7.60938 8.6875 8.32422 8.99219 8.91797 9.32812C9.51172 9.66406 9.99609 10.043 10.3711 10.4648C10.7461 10.8789 11.0195 11.3516 11.1914 11.8828C11.3711 12.4062 11.4609 13 11.4609 13.6641C11.4609 14.3594 11.3438 14.9883 11.1094 15.5508C10.8828 16.1133 10.5508 16.5938 10.1133 16.9922C9.67578 17.3906 9.14844 17.6992 8.53125 17.918C7.91406 18.1289 7.21875 18.2344 6.44531 18.2344C5.77344 18.2344 5.11328 18.125 4.46484 17.9062C3.82422 17.6875 3.24219 17.3594 2.71875 16.9219C2.19531 16.4844 1.77734 15.9453 1.46484 15.3047C1.15234 14.6562 0.996094 13.9062 0.996094 13.0547H3.15234C3.15234 13.6406 3.23828 14.1445 3.41016 14.5664C3.58203 14.9805 3.82031 15.3242 4.125 15.5977C4.42969 15.8711 4.77734 16.0742 5.16797 16.207C5.56641 16.332 5.99219 16.3945 6.44531 16.3945C7.07031 16.3945 7.59375 16.2852 8.01562 16.0664C8.44531 15.8477 8.76562 15.5352 8.97656 15.1289C9.19531 14.7227 9.30469 14.2422 9.30469 13.6875ZM19.7695 0.9375V18H17.6367V0.9375H19.7695ZM24.2578 0.9375V2.78906H13.1602V0.9375H24.2578ZM37.5469 7.99219V10.957C37.5469 12.1602 37.4141 13.2188 37.1484 14.1328C36.8906 15.0391 36.5117 15.7969 36.0117 16.4062C35.5117 17.0156 34.9102 17.4727 34.207 17.7773C33.5039 18.082 32.7109 18.2344 31.8281 18.2344C30.9766 18.2344 30.1992 18.082 29.4961 17.7773C28.793 17.4727 28.1875 17.0156 27.6797 16.4062C27.1719 15.7969 26.7773 15.0391 26.4961 14.1328C26.2227 13.2188 26.0859 12.1602 26.0859 10.957V7.99219C26.0859 6.78906 26.2227 5.73437 26.4961 4.82812C26.7695 3.91406 27.1602 3.15234 27.668 2.54297C28.1758 1.93359 28.7812 1.47656 29.4844 1.17188C30.1875 0.859375 30.9648 0.703125 31.8164 0.703125C32.6992 0.703125 33.4922 0.859375 34.1953 1.17188C34.9062 1.47656 35.5078 1.93359 36 2.54297C36.5 3.15234 36.8828 3.91406 37.1484 4.82812C37.4141 5.73437 37.5469 6.78906 37.5469 7.99219ZM35.4141 10.957V7.96875C35.4141 7.03125 35.3359 6.22656 35.1797 5.55469C35.0234 4.875 34.793 4.32031 34.4883 3.89062C34.1836 3.46094 33.8086 3.14453 33.3633 2.94141C32.918 2.73047 32.4023 2.625 31.8164 2.625C31.2617 2.625 30.7617 2.73047 30.3164 2.94141C29.8789 3.14453 29.5039 3.46094 29.1914 3.89062C28.8789 4.32031 28.6367 4.875 28.4648 5.55469C28.3008 6.22656 28.2188 7.03125 28.2188 7.96875V10.957C28.2188 11.9023 28.3008 12.7148 28.4648 13.3945C28.6367 14.0664 28.8789 14.6211 29.1914 15.0586C29.5117 15.4883 29.8945 15.8086 30.3398 16.0195C30.7852 16.2227 31.2812 16.3242 31.8281 16.3242C32.4141 16.3242 32.9297 16.2227 33.375 16.0195C33.8281 15.8086 34.2031 15.4883 34.5 15.0586C34.8047 14.6211 35.0312 14.0664 35.1797 13.3945C35.3359 12.7148 35.4141 11.9023 35.4141 10.957ZM52.043 0.9375V18H49.875L43.043 4.83984V18H40.8867V0.9375H43.043L49.9102 14.1328V0.9375H52.043ZM64.9453 16.1602V18H57.5391V16.1602H64.9453ZM57.9258 0.9375V18H55.7695V0.9375H57.9258ZM63.9492 8.27344V10.1133H57.5391V8.27344H63.9492ZM64.8281 0.9375V2.78906H57.5391V0.9375H64.8281Z" fill="#EDEDED"/>
</svg>
